<?xml version="1.0" encoding="utf-8"?>
<!-- Generator: Adobe Illustrator 21.1.0, SVG Export Plug-In . SVG Version: 6.00 Build 0)  -->
<svg version="1.1" id="Layer_1" xmlns="http://www.w3.org/2000/svg" xmlns:xlink="http://www.w3.org/1999/xlink" x="0px" y="0px"
	 viewBox="0 0 120 110" style="enable-background:new 0 0 120 110;" xml:space="preserve">
<style type="text/css">
	.st0{fill:#E4E4E4;}
</style>
<path id="XMLID_1253_" class="st0" d="M60,67.1c14.8,0,26.9-12.1,26.9-27C86.9,25.1,74.8,13,60,13S33.1,25.1,33.1,40
	C33.1,55,45.2,67.1,60,67.1z M60,21c10.4,0,18.9,8.5,18.9,19S70.4,59,60,59s-18.9-8.5-18.9-19S49.6,21,60,21z M72.5,69.7
	c-1.3-0.4-2.8-0.1-3.8,0.8L60,77.9l-8.7-7.4c-1.1-0.9-2.5-1.2-3.8-0.8C41.9,71.5,14,81.1,14,95c0,2.2,1.8,4,4,4h84c2.2,0,4-1.8,4-4
	C106,81.1,78.1,71.5,72.5,69.7z M24.1,91c4.4-4.7,15-9.9,23.8-12.9l9.5,8.1c1.5,1.3,3.7,1.3,5.2,0l9.5-8.1
	c8.8,3.1,19.4,8.3,23.8,12.9H24.1z"/>
</svg>
