<?xml version="1.0" encoding="utf-8"?>
<!-- Generator: Adobe Illustrator 22.0.1, SVG Export Plug-In . SVG Version: 6.00 Build 0)  -->
<svg version="1.1" id="Layer_2" xmlns="http://www.w3.org/2000/svg" xmlns:xlink="http://www.w3.org/1999/xlink" x="0px" y="0px"
	 viewBox="0 0 451 451" style="enable-background:new 0 0 451 451;" xml:space="preserve">
<style type="text/css">
	.st0{fill:#FFFFFF;}
	.st1{fill:#66CFC3;}
	.st2{fill:#F75077;}
	.st3{fill:#FF8840;}
</style>
<g>
	<path class="st0" d="M0.5,0.5v450h450V0.5H0.5z M368.8,213.1L368.8,213.1c0.3,1.4-0.6,2.7-2,2.9l-21.6,4.1c-0.2,0-0.3,0-0.5,0
		c-1.2,0-2.2-0.8-2.5-2c-0.3-1.4,0.6-2.7,2-2.9l21.6-4.1C367.3,210.9,368.6,211.8,368.8,213.1z M363.1,194.2c0.6,0.3,1,0.8,1.2,1.5
		c0.4,1.3-0.3,2.7-1.6,3.1l-34.2,11.1c-0.3,0.1-0.5,0.1-0.8,0.1c-0.4,0-0.8-0.1-1.1-0.3c-0.6-0.3-1-0.8-1.2-1.5
		c-0.4-1.3,0.3-2.7,1.6-3.2l34.2-11.1C361.8,193.8,362.5,193.9,363.1,194.2z M356.3,177.5c0.6,0.2,1.1,0.7,1.4,1.3
		c0.3,0.6,0.3,1.3,0.1,1.9c-0.2,0.6-0.7,1.1-1.3,1.4l-19.9,9.4c-0.3,0.2-0.7,0.2-1.1,0.2c-0.9,0-1.8-0.5-2.3-1.4
		c-0.6-1.2,0-2.7,1.2-3.3l19.9-9.4C354.9,177.3,355.6,177.3,356.3,177.5z M347.4,161.9c0.7,0.1,1.2,0.5,1.6,1.1
		c0.4,0.6,0.5,1.2,0.3,1.9c-0.1,0.7-0.5,1.2-1.1,1.6l-18.6,11.8c-0.4,0.3-0.9,0.4-1.3,0.4c-0.2,0-0.4,0-0.6-0.1
		c-0.7-0.1-1.2-0.5-1.6-1.1c-0.4-0.6-0.5-1.2-0.3-1.9c0.1-0.7,0.5-1.2,1.1-1.6l18.6-11.8C346.1,161.8,346.7,161.7,347.4,161.9z
		 M336.6,147.4c0.7,0.1,1.3,0.4,1.7,0.9c0.4,0.5,0.6,1.2,0.6,1.8c-0.1,0.7-0.4,1.3-0.9,1.7l-17,14c-0.5,0.4-1,0.6-1.6,0.6
		c-0.7,0-1.4-0.3-1.9-0.9c-0.4-0.5-0.6-1.2-0.6-1.8c0.1-0.7,0.4-1.3,0.9-1.7l17-14C335.3,147.6,336,147.4,336.6,147.4z M324.2,134.5
		c0.7,0,1.3,0.2,1.8,0.7c0.5,0.5,0.8,1.1,0.8,1.7c0,0.7-0.2,1.3-0.7,1.8l-15.1,16c-0.5,0.5-1.1,0.8-1.7,0.8c0,0-0.1,0-0.1,0
		c-0.6,0-1.2-0.2-1.7-0.7c-0.5-0.5-0.8-1.1-0.8-1.7c0-0.7,0.2-1.3,0.7-1.8l15.1-16C322.9,134.8,323.5,134.5,324.2,134.5z M312,123.6
		c1.1,0.8,1.4,2.4,0.6,3.5l-12.9,17.8c-0.4,0.5-1,0.9-1.6,1c-0.1,0-0.3,0-0.4,0c-0.5,0-1-0.2-1.5-0.5c-0.5-0.4-0.9-1-1-1.6
		s0.1-1.3,0.4-1.9l12.9-17.8C309.3,123.1,310.9,122.8,312,123.6z M141.7,125.3c0.1-0.7,0.5-1.2,1-1.6c1.1-0.8,2.7-0.6,3.5,0.6
		l12.9,17.8c0.8,1.1,0.6,2.7-0.6,3.5c-0.4,0.3-0.9,0.5-1.5,0.5c-0.1,0-0.3,0-0.4,0c-0.7-0.1-1.2-0.5-1.6-1l-12.9-17.8
		C141.8,126.6,141.6,125.9,141.7,125.3z M128.8,135.2c1-0.9,2.6-0.9,3.5,0.1l15.1,16c0.5,0.5,0.7,1.1,0.7,1.8c0,0.7-0.3,1.3-0.8,1.7
		c-0.5,0.5-1.1,0.7-1.7,0.7c-0.7,0-1.3-0.3-1.8-0.8l-15.1-16c-0.5-0.5-0.7-1.1-0.7-1.8C128,136.2,128.3,135.6,128.8,135.2z
		 M116.4,148.3c0.4-0.5,1-0.8,1.7-0.9c0.7-0.1,1.3,0.1,1.8,0.6l17,14c0.5,0.4,0.8,1,0.9,1.7c0.1,0.7-0.1,1.3-0.6,1.8
		c-0.5,0.6-1.2,0.9-1.9,0.9c-0.6,0-1.1-0.2-1.6-0.6l-17-14c-0.5-0.4-0.8-1-0.9-1.7C115.8,149.5,116,148.8,116.4,148.3z M105.8,163
		c0.4-0.6,0.9-1,1.6-1.1c0.7-0.1,1.3,0,1.9,0.3l18.6,11.8c0.6,0.4,1,0.9,1.1,1.6c0.1,0.7,0,1.3-0.3,1.9h0c-0.5,0.7-1.3,1.2-2.1,1.2
		c-0.5,0-0.9-0.1-1.3-0.4l-18.6-11.8c-0.6-0.4-1-0.9-1.1-1.6C105.3,164.2,105.4,163.5,105.8,163z M97.1,178.8
		c0.6-1.2,2.1-1.8,3.3-1.2l19.9,9.4c1.2,0.6,1.8,2.1,1.2,3.3c-0.4,0.9-1.3,1.4-2.3,1.4c-0.4,0-0.7-0.1-1.1-0.2l-19.9-9.4
		c-0.6-0.3-1.1-0.8-1.3-1.4C96.8,180.1,96.8,179.4,97.1,178.8z M90.4,195.6c0.2-0.6,0.6-1.1,1.2-1.5c0.6-0.3,1.3-0.4,1.9-0.2
		l34.3,11.1c0.6,0.2,1.1,0.6,1.5,1.2c0.3,0.6,0.4,1.3,0.2,1.9v0c-0.3,1.1-1.3,1.7-2.4,1.7c-0.3,0-0.5,0-0.8-0.1L92,198.8
		C90.7,198.3,90,196.9,90.4,195.6z M85.9,213.1c0.3-1.4,1.6-2.2,2.9-2l21.6,4.1c0.7,0.1,1.2,0.5,1.6,1.1c0.4,0.6,0.5,1.2,0.4,1.9
		s-0.5,1.2-1.1,1.6c-0.4,0.3-0.9,0.4-1.4,0.4c-0.2,0-0.3,0-0.5,0l-21.6-4.1c-0.7-0.1-1.2-0.5-1.6-1.1
		C85.9,214.5,85.8,213.8,85.9,213.1z M86.3,228.7l22,1.4c1.4,0.1,2.4,1.3,2.3,2.7v0c0,0.7-0.3,1.3-0.8,1.7c-0.5,0.4-1,0.6-1.6,0.6
		c-0.1,0-0.1,0-0.2,0l-22-1.4c-0.7,0-1.3-0.3-1.7-0.8c-0.4-0.5-0.7-1.1-0.6-1.8C83.7,229.7,84.9,228.7,86.3,228.7z M83.7,249.2
		c0-0.7,0.2-1.3,0.6-1.8c0.4-0.5,1.1-0.8,1.7-0.8l22-1.4c1.4-0.1,2.6,1,2.7,2.3v0c0.1,1.4-1,2.6-2.3,2.7l-22,1.4c-0.1,0-0.1,0-0.2,0
		c-0.6,0-1.2-0.2-1.6-0.6C84,250.4,83.7,249.8,83.7,249.2z M88.4,269.1c-0.5,0-1-0.1-1.4-0.4c-0.6-0.4-0.9-0.9-1.1-1.6
		c-0.3-1.4,0.6-2.7,2-2.9l21.6-4.1c0.7-0.1,1.3,0,1.9,0.4s0.9,0.9,1.1,1.6s0,1.3-0.4,1.9c-0.4,0.6-0.9,0.9-1.6,1.1l-21.6,4.1
		C88.7,269.1,88.5,269.1,88.4,269.1z M92.8,286.3c-1.1,0-2-0.7-2.4-1.7c-0.4-1.3,0.3-2.7,1.6-3.2l20.9-6.8c1.3-0.4,2.7,0.3,3.1,1.6
		c0.2,0.6,0.2,1.3-0.2,1.9c-0.3,0.6-0.8,1-1.5,1.2l-20.9,6.8C93.3,286.3,93.1,286.3,92.8,286.3z M99.3,302.9c-0.3,0-0.6,0-0.9-0.1
		c-0.6-0.2-1.1-0.7-1.4-1.3c-0.6-1.2,0-2.7,1.2-3.3l19.9-9.4c0.6-0.3,1.3-0.3,1.9-0.1c0.6,0.2,1.1,0.7,1.4,1.3
		c0.6,1.2,0,2.7-1.2,3.3l-19.9,9.4C100.1,302.8,99.7,302.9,99.3,302.9z M107.9,318.4c-0.2,0-0.4,0-0.6-0.1c-0.7-0.1-1.2-0.5-1.6-1.1
		c-0.4-0.6-0.5-1.2-0.3-1.9s0.5-1.2,1.1-1.6l18.6-11.8c1.2-0.7,2.7-0.4,3.5,0.8c0.7,1.2,0.4,2.7-0.8,3.5l-18.6,11.8
		C108.8,318.3,108.4,318.4,107.9,318.4z M118.4,332.8c-0.1,0-0.2,0-0.2,0c-0.7-0.1-1.3-0.4-1.7-0.9c-0.4-0.5-0.6-1.2-0.6-1.8
		c0.1-0.7,0.4-1.3,0.9-1.7l17-14c0.5-0.4,1.2-0.6,1.8-0.6c0.7,0.1,1.3,0.4,1.7,0.9c0.4,0.5,0.6,1.2,0.6,1.8
		c-0.1,0.7-0.4,1.3-0.9,1.7l-17,14C119.5,332.6,118.9,332.8,118.4,332.8z M130.5,345.8c-0.6,0-1.2-0.2-1.7-0.7
		c-0.5-0.5-0.8-1.1-0.8-1.7s0.2-1.3,0.7-1.8l15.1-16c0.9-1,2.5-1.1,3.5-0.1c0.5,0.5,0.8,1.1,0.8,1.7c0,0.7-0.2,1.3-0.7,1.8l-15.1,16
		C131.8,345.5,131.2,345.8,130.5,345.8z M167.4,326.9l-21.2,29.1c-0.4,0.5-1,0.9-1.6,1c-0.1,0-0.3,0-0.4,0c-0.5,0-1-0.2-1.5-0.5
		c-0.5-0.4-0.9-1-1-1.6c-0.1-0.7,0.1-1.3,0.4-1.9l21.2-29.1c0.4-0.5,1-0.9,1.6-1c0.7-0.1,1.3,0.1,1.9,0.4c0.5,0.4,0.9,1,1,1.6
		C167.9,325.7,167.8,326.4,167.4,326.9z M172.2,136.1c-0.2,0.6-0.6,1.2-1.2,1.5c-0.4,0.2-0.8,0.3-1.2,0.3c-0.2,0-0.5,0-0.7-0.1
		c-0.6-0.2-1.2-0.6-1.5-1.2L157,117.3c-0.7-1.2-0.2-2.7,1-3.4c1.2-0.7,2.7-0.2,3.4,1l10.6,19.3C172.3,134.8,172.4,135.5,172.2,136.1
		z M185.7,130c-0.3,0.6-0.8,1.1-1.4,1.3c-0.3,0.1-0.6,0.2-0.9,0.2c-0.3,0-0.7-0.1-1-0.2c-0.6-0.3-1.1-0.8-1.3-1.4l-8.1-20.5
		c-0.2-0.6-0.2-1.3,0-1.9c0.3-0.6,0.8-1.1,1.4-1.3c0.6-0.2,1.3-0.2,1.9,0c0.6,0.3,1.1,0.8,1.3,1.4l8.1,20.5
		C186,128.7,185.9,129.4,185.7,130z M198.3,126.8c-0.2,0.1-0.4,0.1-0.6,0.1c-0.4,0-0.9-0.1-1.3-0.4c-0.6-0.3-1-0.9-1.2-1.5
		l-5.5-21.3c-0.3-1.3,0.5-2.7,1.8-3c1.3-0.3,2.7,0.5,3,1.8l5.5,21.3C200.4,125.1,199.6,126.5,198.3,126.8z M214.4,123.1
		c-0.4,0.5-1,0.9-1.7,0.9c-0.1,0-0.2,0-0.3,0c-0.6,0-1.1-0.2-1.5-0.5c-0.5-0.4-0.9-1-0.9-1.7l-2.8-21.8c-0.2-1.4,0.8-2.6,2.2-2.8
		c0.7-0.1,1.3,0.1,1.8,0.5c0.5,0.4,0.9,1,0.9,1.7l2.8,21.8C215,121.9,214.8,122.6,214.4,123.1z M229.9,134.6c0,1.4-1.1,2.5-2.5,2.5
		s-2.5-1.1-2.5-2.5v-36c0-1.4,1.1-2.5,2.5-2.5s2.5,1.1,2.5,2.5V134.6z M247.6,100.1l-2.8,21.8c-0.2,1.3-1.2,2.2-2.5,2.2
		c-0.1,0-0.2,0-0.3,0c-1.4-0.2-2.3-1.4-2.2-2.8l2.8-21.8c0.1-0.7,0.4-1.2,0.9-1.7c0.5-0.4,1.2-0.6,1.8-0.5c0.7,0.1,1.2,0.4,1.7,0.9
		C247.5,98.7,247.7,99.4,247.6,100.1z M265,103.7l-5.5,21.3c-0.2,0.6-0.6,1.2-1.2,1.5c-0.4,0.2-0.8,0.4-1.3,0.4
		c-0.2,0-0.4,0-0.6-0.1c-1.3-0.3-2.1-1.7-1.8-3l5.5-21.3c0.2-0.6,0.6-1.2,1.2-1.5c0.6-0.3,1.2-0.4,1.9-0.3
		C264.5,101,265.3,102.4,265,103.7z M281.8,109.5l-8.1,20.5c-0.2,0.6-0.7,1.1-1.3,1.4c-0.3,0.1-0.7,0.2-1,0.2
		c-0.3,0-0.6-0.1-0.9-0.2c-0.6-0.2-1.1-0.7-1.4-1.3s-0.3-1.3,0-1.9l8.1-20.5c0.5-1.3,2-1.9,3.2-1.4c0.6,0.2,1.1,0.7,1.4,1.3
		S282,108.9,281.8,109.5z M285.6,137.8c-0.2,0.1-0.5,0.1-0.7,0.1c-0.4,0-0.8-0.1-1.2-0.3c-0.6-0.3-1-0.9-1.2-1.5
		c-0.2-0.6-0.1-1.3,0.2-1.9l10.6-19.3c0.3-0.6,0.9-1,1.5-1.2c0.6-0.2,1.3-0.1,1.9,0.2c1.2,0.7,1.7,2.2,1,3.4l-10.6,19.3
		C286.8,137.2,286.3,137.6,285.6,137.8z M313,355c-0.1,0.7-0.5,1.2-1,1.6c-0.4,0.3-1,0.5-1.5,0.5c-0.8,0-1.5-0.4-2-1l-21.2-29.1
		c-0.4-0.5-0.5-1.2-0.4-1.9c0.1-0.7,0.5-1.2,1-1.6c0.5-0.4,1.2-0.5,1.9-0.4c0.7,0.1,1.2,0.5,1.6,1l21.2,29.1
		C313,353.7,313.1,354.3,313,355z M325.9,345.1c-0.5,0.4-1.1,0.7-1.7,0.7c0,0-0.1,0-0.1,0c-0.7,0-1.3-0.3-1.7-0.8l-15.1-16
		c-0.5-0.5-0.7-1.1-0.7-1.8c0-0.7,0.3-1.3,0.8-1.7c0.5-0.5,1.2-0.7,1.8-0.7c0.7,0,1.3,0.3,1.7,0.8l15.1,16c0.5,0.5,0.7,1.1,0.7,1.8
		C326.7,344,326.4,344.6,325.9,345.1z M338.3,331.9c-0.4,0.5-1,0.8-1.7,0.9c-0.1,0-0.2,0-0.2,0c-0.6,0-1.1-0.2-1.6-0.6l-17-14
		c-0.5-0.4-0.8-1-0.9-1.7c-0.1-0.7,0.1-1.3,0.6-1.8c0.9-1.1,2.5-1.2,3.5-0.3l17,14c0.5,0.4,0.8,1,0.9,1.7S338.8,331.4,338.3,331.9z
		 M349,317.3c-0.4,0.6-0.9,1-1.6,1.1c-0.2,0-0.4,0.1-0.6,0.1c-0.5,0-0.9-0.1-1.3-0.4l-18.6-11.8c-0.6-0.4-1-0.9-1.1-1.6
		c-0.1-0.7,0-1.3,0.3-1.9c0.4-0.6,0.9-1,1.6-1.1c0.6-0.1,1.3,0,1.9,0.3l18.6,11.8c0.6,0.4,1,0.9,1.1,1.6
		C349.4,316.1,349.3,316.7,349,317.3z M357.7,301.4c-0.3,0.6-0.8,1.1-1.4,1.3c-0.3,0.1-0.6,0.2-0.9,0.2c-0.4,0-0.7-0.1-1.1-0.2
		l-19.9-9.4c-1.2-0.6-1.8-2.1-1.2-3.3c0.3-0.6,0.8-1.1,1.4-1.3c0.6-0.2,1.3-0.2,1.9,0.1l19.9,9.4c0.6,0.3,1.1,0.8,1.3,1.4
		C358,300.2,358,300.8,357.7,301.4z M364.3,284.6c-0.3,1.1-1.3,1.7-2.4,1.7c-0.3,0-0.5,0-0.8-0.1l-20.9-6.8c-1.3-0.4-2-1.8-1.6-3.1
		c0.4-1.3,1.8-2,3.2-1.6l20.9,6.8C364,281.9,364.8,283.3,364.3,284.6z M368.8,267.1L368.8,267.1c-0.2,1.2-1.3,2-2.5,2
		c-0.2,0-0.3,0-0.5,0l-21.6-4.1c-1.4-0.3-2.2-1.6-2-2.9c0.3-1.4,1.6-2.2,2.9-2l21.6,4.1C368.2,264.4,369.1,265.8,368.8,267.1z
		 M370.2,250.9c-0.5,0.4-1,0.6-1.6,0.6c-0.1,0-0.1,0-0.2,0l-22-1.4c-0.7,0-1.3-0.3-1.7-0.8c-0.4-0.5-0.7-1.1-0.6-1.8
		c0-0.7,0.3-1.3,0.8-1.7c0.5-0.4,1.1-0.7,1.8-0.6l22,1.4c0.7,0,1.3,0.3,1.7,0.8c0.4,0.5,0.7,1.1,0.6,1.8
		C371,249.8,370.8,250.4,370.2,250.9z M370.5,232.9c-0.4,0.5-1.1,0.8-1.7,0.8l-22,1.4c-0.1,0-0.1,0-0.2,0c-0.6,0-1.2-0.2-1.6-0.6
		c-0.5-0.4-0.8-1.1-0.8-1.7c0-0.7,0.2-1.3,0.6-1.8c0.4-0.5,1.1-0.8,1.7-0.8l22-1.4c0.7,0,1.3,0.2,1.8,0.6c0.5,0.4,0.8,1.1,0.8,1.7
		C371.1,231.7,370.9,232.4,370.5,232.9z"/>
	<path class="st1" d="M212.1,99.4c-0.1-0.7-0.4-1.2-0.9-1.7c-0.5-0.4-1.2-0.6-1.8-0.5c-1.4,0.2-2.3,1.4-2.2,2.8l2.8,21.8
		c0.1,0.7,0.4,1.2,0.9,1.7c0.4,0.3,1,0.5,1.5,0.5c0.1,0,0.2,0,0.3,0c0.7-0.1,1.2-0.4,1.7-0.9c0.4-0.5,0.6-1.2,0.5-1.8L212.1,99.4z
		 M213.6,122.5c-0.2,0.3-0.6,0.5-1,0.6c-0.4,0-0.8-0.1-1.1-0.3c-0.3-0.2-0.5-0.6-0.6-1l-2.8-21.8c-0.1-0.8,0.5-1.6,1.3-1.7
		c0.1,0,0.1,0,0.2,0c0.3,0,0.7,0.1,0.9,0.3c0.3,0.2,0.5,0.6,0.6,1l2.8,21.8C213.9,121.8,213.8,122.2,213.6,122.5z"/>
	<path class="st1" d="M194.6,102.4c-0.3-1.3-1.7-2.1-3-1.8c-1.3,0.3-2.1,1.7-1.8,3l5.5,21.3c0.2,0.6,0.6,1.2,1.2,1.5
		c0.4,0.2,0.8,0.4,1.3,0.4c0.2,0,0.4,0,0.6-0.1c1.3-0.3,2.1-1.7,1.8-3L194.6,102.4z M198,125.8c-0.4,0.1-0.8,0-1.1-0.2
		c-0.3-0.2-0.6-0.5-0.7-0.9l-5.5-21.3c-0.2-0.8,0.3-1.6,1.1-1.8c0.1,0,0.2,0,0.4,0c0.7,0,1.3,0.5,1.5,1.1l5.5,21.3
		C199.3,124.8,198.8,125.6,198,125.8z"/>
	<path class="st1" d="M177.6,107.6c-0.2-0.6-0.7-1.1-1.3-1.4c-0.6-0.3-1.3-0.3-1.9,0c-0.6,0.2-1.1,0.7-1.4,1.3
		c-0.3,0.6-0.3,1.3,0,1.9l8.1,20.5c0.2,0.6,0.7,1.1,1.3,1.4c0.3,0.1,0.7,0.2,1,0.2c0.3,0,0.6-0.1,0.9-0.2c0.6-0.2,1.1-0.7,1.4-1.3
		c0.3-0.6,0.3-1.3,0-1.9L177.6,107.6z M184.8,129.6c-0.2,0.4-0.5,0.7-0.8,0.8c-0.4,0.1-0.8,0.1-1.1,0c-0.4-0.2-0.7-0.5-0.8-0.8
		l-8.1-20.5c-0.1-0.4-0.1-0.8,0-1.1s0.5-0.7,0.8-0.8c0.2-0.1,0.4-0.1,0.6-0.1c0.6,0,1.2,0.4,1.4,0.9l8.1,20.5
		C184.9,128.8,184.9,129.2,184.8,129.6z"/>
	<path class="st1" d="M161.4,114.9c-0.7-1.2-2.2-1.6-3.4-1c-1.2,0.7-1.6,2.2-1,3.4l10.6,19.3c0.3,0.6,0.9,1,1.5,1.2
		c0.2,0.1,0.5,0.1,0.7,0.1c0.4,0,0.8-0.1,1.2-0.3c0.6-0.3,1-0.9,1.2-1.5c0.2-0.6,0.1-1.3-0.2-1.9L161.4,114.9z M171.2,135.8
		c-0.1,0.4-0.4,0.7-0.7,0.9c-0.3,0.2-0.8,0.2-1.1,0.1c-0.4-0.1-0.7-0.4-0.9-0.7l-10.6-19.3c-0.4-0.7-0.1-1.6,0.6-2
		c0.2-0.1,0.5-0.2,0.7-0.2c0.5,0,1,0.3,1.3,0.8l10.6,19.3C171.3,135,171.4,135.4,171.2,135.8z"/>
	<path class="st1" d="M155.1,144.9c0.4,0.5,1,0.9,1.6,1c0.1,0,0.3,0,0.4,0c0.5,0,1-0.2,1.5-0.5c1.1-0.8,1.4-2.4,0.6-3.5l-12.9-17.8
		c-0.8-1.1-2.4-1.4-3.5-0.6c-0.5,0.4-0.9,1-1,1.6s0.1,1.3,0.4,1.9L155.1,144.9z M142.7,125.4c0.1-0.4,0.3-0.7,0.6-1
		c0.3-0.2,0.6-0.3,0.9-0.3c0.5,0,0.9,0.2,1.2,0.6l12.9,17.8c0.2,0.3,0.3,0.7,0.3,1.1c-0.1,0.4-0.3,0.7-0.6,1v0
		c-0.3,0.2-0.7,0.3-1.1,0.3c-0.4-0.1-0.7-0.3-1-0.6L143,126.5C142.8,126.2,142.7,125.8,142.7,125.4z"/>
	<path class="st2" d="M291.4,324c-0.4-0.5-1-0.9-1.6-1c-0.7-0.1-1.3,0.1-1.9,0.4c-0.5,0.4-0.9,1-1,1.6c-0.1,0.7,0.1,1.3,0.4,1.9
		l21.2,29.1c0.5,0.7,1.3,1,2,1c0.5,0,1-0.2,1.5-0.5c0.5-0.4,0.9-1,1-1.6c0.1-0.7-0.1-1.3-0.4-1.9L291.4,324z M312,354.8
		c-0.1,0.4-0.3,0.7-0.6,1c-0.7,0.5-1.6,0.3-2.1-0.3l-21.2-29.1c-0.5-0.7-0.3-1.6,0.3-2.1c0.3-0.2,0.6-0.3,0.9-0.3c0.1,0,0.2,0,0.2,0
		c0.4,0.1,0.7,0.3,1,0.6l21.2,29.1C312,354.1,312.1,354.4,312,354.8z"/>
	<path class="st1" d="M143.7,154.7c0.5,0.5,1.2,0.8,1.8,0.8c0.6,0,1.2-0.2,1.7-0.7c0.5-0.5,0.8-1.1,0.8-1.7c0-0.7-0.2-1.3-0.7-1.8
		l-15.1-16c-0.9-1-2.5-1.1-3.5-0.1c-0.5,0.5-0.8,1.1-0.8,1.7c0,0.7,0.2,1.3,0.7,1.8L143.7,154.7z M129.5,135.9
		c0.3-0.3,0.7-0.4,1-0.4c0.4,0,0.8,0.2,1.1,0.5l15.1,16c0.6,0.6,0.5,1.6-0.1,2.1c-0.6,0.6-1.6,0.5-2.1-0.1l-15.1-16
		c-0.3-0.3-0.4-0.7-0.4-1.1C129,136.5,129.2,136.2,129.5,135.9z"/>
	<path class="st2" d="M311,325.5c-0.5-0.5-1.1-0.8-1.7-0.8c-0.6,0-1.3,0.2-1.8,0.7c-0.5,0.5-0.8,1.1-0.8,1.7c0,0.7,0.2,1.3,0.7,1.8
		l15.1,16c0.5,0.5,1.1,0.8,1.7,0.8c0,0,0.1,0,0.1,0c0.6,0,1.2-0.2,1.7-0.7c0.5-0.5,0.8-1.1,0.8-1.7c0-0.7-0.2-1.3-0.7-1.8L311,325.5
		z M325.3,344.4c-0.6,0.6-1.6,0.5-2.1-0.1l-15.1-16c-0.3-0.3-0.4-0.7-0.4-1.1s0.2-0.8,0.5-1c0.3-0.3,0.6-0.4,1-0.4c0,0,0,0,0,0
		c0.4,0,0.8,0.2,1,0.5l15.1,16c0.3,0.3,0.4,0.7,0.4,1.1C325.7,343.7,325.6,344.1,325.3,344.4z"/>
	<path class="st1" d="M133.7,165.9c0.5,0.4,1,0.6,1.6,0.6c0.7,0,1.4-0.3,1.9-0.9c0.4-0.5,0.6-1.2,0.6-1.8c-0.1-0.7-0.4-1.3-0.9-1.7
		l-17-14c-0.5-0.4-1.2-0.6-1.8-0.6c-0.7,0.1-1.3,0.4-1.7,0.9c-0.4,0.5-0.6,1.2-0.6,1.8c0.1,0.7,0.4,1.3,0.9,1.7L133.7,165.9z
		 M117.2,149c0.3-0.3,0.6-0.5,1-0.5c0,0,0.1,0,0.1,0c0.3,0,0.7,0.1,1,0.3l17,14c0.3,0.3,0.5,0.6,0.5,1c0,0.4-0.1,0.8-0.3,1.1
		c-0.5,0.6-1.5,0.7-2.1,0.2l-17-14c-0.3-0.3-0.5-0.6-0.5-1C116.8,149.7,116.9,149.3,117.2,149z"/>
	<path class="st3" d="M321,314.4c-1.1-0.9-2.6-0.7-3.5,0.3c-0.4,0.5-0.6,1.2-0.6,1.8c0.1,0.7,0.4,1.3,0.9,1.7l17,14
		c0.5,0.4,1,0.6,1.6,0.6c0.1,0,0.2,0,0.2,0c0.7-0.1,1.3-0.4,1.7-0.9c0.4-0.5,0.6-1.2,0.6-1.8s-0.4-1.3-0.9-1.7L321,314.4z
		 M337.6,331.3c-0.3,0.3-0.6,0.5-1,0.5c-0.4,0-0.8-0.1-1.1-0.3l-17-14c-0.3-0.3-0.5-0.6-0.5-1c0-0.4,0.1-0.8,0.3-1.1
		c0.3-0.4,0.7-0.5,1.2-0.5c0.3,0,0.7,0.1,1,0.3l17,14c0.3,0.3,0.5,0.6,0.5,1C337.9,330.6,337.8,331,337.6,331.3z"/>
	<path class="st1" d="M106.6,166.4l18.6,11.8c0.4,0.3,0.9,0.4,1.3,0.4c0.8,0,1.6-0.4,2.1-1.2h0c0.4-0.6,0.5-1.2,0.3-1.9
		c-0.1-0.7-0.5-1.2-1.1-1.6l-18.6-11.8c-0.6-0.4-1.2-0.5-1.9-0.3c-0.7,0.1-1.2,0.5-1.6,1.1c-0.4,0.6-0.5,1.2-0.3,1.9
		C105.6,165.5,106,166.1,106.6,166.4z M106.6,163.5c0.3-0.4,0.8-0.7,1.3-0.7c0.3,0,0.6,0.1,0.8,0.2l18.6,11.8
		c0.7,0.4,0.9,1.4,0.5,2.1s-1.4,0.9-2.1,0.5l-18.6-11.8C106.4,165.1,106.2,164.2,106.6,163.5z"/>
	<path class="st3" d="M348.2,313.8L329.6,302c-0.6-0.4-1.2-0.5-1.9-0.3c-0.7,0.1-1.2,0.5-1.6,1.1c-0.4,0.6-0.5,1.2-0.3,1.9
		c0.1,0.7,0.5,1.2,1.1,1.6l18.6,11.8c0.4,0.3,0.9,0.4,1.3,0.4c0.2,0,0.4,0,0.6-0.1c0.7-0.1,1.2-0.5,1.6-1.1c0.4-0.6,0.5-1.2,0.3-1.9
		C349.1,314.7,348.7,314.2,348.2,313.8z M348.1,316.7c-0.2,0.3-0.5,0.6-0.9,0.7c-0.4,0.1-0.8,0-1.1-0.2l-18.6-11.8
		c-0.3-0.2-0.6-0.5-0.7-0.9c-0.1-0.4,0-0.8,0.2-1.1c0.2-0.3,0.5-0.6,0.9-0.7c0.1,0,0.2,0,0.3,0c0.3,0,0.6,0.1,0.8,0.2l18.6,11.8
		c0.3,0.2,0.6,0.5,0.7,0.9C348.4,316,348.3,316.4,348.1,316.7z"/>
	<path class="st1" d="M98.3,182.1l19.9,9.4c0.3,0.2,0.7,0.2,1.1,0.2c0.9,0,1.8-0.5,2.3-1.4c0.6-1.2,0-2.7-1.2-3.3l-19.9-9.4
		c-1.2-0.6-2.7,0-3.3,1.2c-0.3,0.6-0.3,1.3-0.1,1.9C97.2,181.4,97.7,181.9,98.3,182.1z M98,179.2c0.2-0.4,0.5-0.6,0.8-0.8
		c0.2-0.1,0.3-0.1,0.5-0.1c0.2,0,0.4,0,0.6,0.1l19.9,9.4c0.7,0.4,1.1,1.2,0.7,2c-0.2,0.4-0.5,0.6-0.8,0.8c-0.4,0.1-0.8,0.1-1.1-0.1
		l-19.9-9.4c-0.4-0.2-0.6-0.5-0.8-0.8S97.8,179.6,98,179.2z"/>
	<path class="st3" d="M356.5,298.1l-19.9-9.4c-0.6-0.3-1.3-0.3-1.9-0.1c-0.6,0.2-1.1,0.7-1.4,1.3c-0.6,1.2,0,2.7,1.2,3.3l19.9,9.4
		c0.3,0.2,0.7,0.2,1.1,0.2c0.3,0,0.6-0.1,0.9-0.2c0.6-0.2,1.1-0.7,1.4-1.3c0.3-0.6,0.3-1.3,0.1-1.9
		C357.5,298.9,357.1,298.4,356.5,298.1z M356.8,301c-0.2,0.4-0.5,0.6-0.8,0.8c-0.4,0.1-0.8,0.1-1.1-0.1l-19.9-9.4
		c-0.7-0.4-1.1-1.2-0.7-2c0.2-0.4,0.5-0.6,0.9-0.8c0.2-0.1,0.3-0.1,0.5-0.1c0.2,0,0.4,0,0.6,0.1L356,299c0.4,0.2,0.6,0.5,0.8,0.8
		C357,300.2,356.9,300.6,356.8,301z"/>
	<path class="st1" d="M92,198.8l34.3,11.1c0.3,0.1,0.5,0.1,0.8,0.1c1.1,0,2-0.7,2.4-1.7v0c0.2-0.6,0.2-1.3-0.2-1.9
		c-0.3-0.6-0.8-1-1.5-1.2L93.6,194c-0.6-0.2-1.3-0.2-1.9,0.2c-0.6,0.3-1,0.8-1.2,1.5C90,196.9,90.7,198.3,92,198.8z M91.4,195.9
		c0.1-0.4,0.4-0.7,0.7-0.9c0.2-0.1,0.4-0.2,0.7-0.2c0.2,0,0.3,0,0.5,0.1l34.3,11.1c0.4,0.1,0.7,0.4,0.9,0.7s0.2,0.8,0.1,1.1l0,0
		c-0.1,0.4-0.4,0.7-0.7,0.9c-0.4,0.2-0.8,0.2-1.1,0.1l-34.3-11.1C91.6,197.6,91.1,196.7,91.4,195.9z"/>
	<path class="st1" d="M362.7,281.5l-20.9-6.8c-1.3-0.4-2.7,0.3-3.2,1.6c-0.4,1.3,0.3,2.7,1.6,3.1l20.9,6.8c0.3,0.1,0.5,0.1,0.8,0.1
		c1.1,0,2-0.7,2.4-1.7C364.8,283.3,364,281.9,362.7,281.5z M363.4,284.3c-0.1,0.4-0.4,0.7-0.7,0.9c-0.4,0.2-0.8,0.2-1.1,0.1
		l-20.9-6.8c-0.8-0.3-1.2-1.1-1-1.9c0.2-0.6,0.8-1,1.4-1c0.2,0,0.3,0,0.5,0.1l20.9,6.8C363.2,282.7,363.6,283.5,363.4,284.3z"/>
	<path class="st1" d="M87.9,216.1l21.6,4.1c0.2,0,0.3,0,0.5,0c0.5,0,1-0.1,1.4-0.4c0.6-0.4,0.9-0.9,1.1-1.6s0-1.3-0.4-1.9
		c-0.4-0.6-0.9-0.9-1.6-1.1l-21.6-4.1c-1.4-0.3-2.7,0.6-2.9,2c-0.1,0.7,0,1.3,0.4,1.9C86.7,215.6,87.3,215.9,87.9,216.1z
		 M86.9,213.3c0.1-0.7,0.8-1.2,1.5-1.2c0.1,0,0.2,0,0.3,0l21.6,4.1c0.8,0.2,1.3,0.9,1.2,1.8s-0.9,1.3-1.8,1.2l-21.6-4.1
		C87.3,214.9,86.8,214.1,86.9,213.3z"/>
	<path class="st1" d="M366.8,264.2l-21.6-4.1c-1.3-0.3-2.7,0.6-2.9,2c-0.3,1.4,0.6,2.7,2,2.9l21.6,4.1c0.2,0,0.3,0,0.5,0
		c1.2,0,2.2-0.8,2.5-2v0C369.1,265.8,368.2,264.4,366.8,264.2z M367.8,266.9c-0.2,0.8-0.9,1.3-1.8,1.2l-21.6-4.1
		c-0.8-0.2-1.3-0.9-1.2-1.8c0.1-0.7,0.8-1.2,1.5-1.2c0.1,0,0.2,0,0.3,0l21.6,4.1C367.5,265.3,368,266.1,367.8,266.9z"/>
	<path class="st1" d="M86,233.7l22,1.4c0.1,0,0.1,0,0.2,0c0.6,0,1.2-0.2,1.6-0.6c0.5-0.4,0.8-1.1,0.8-1.7v0c0.1-1.4-1-2.6-2.3-2.7
		l-22-1.4c-1.4-0.1-2.6,1-2.7,2.3c0,0.7,0.2,1.3,0.6,1.8C84.7,233.4,85.3,233.7,86,233.7z M86.2,229.7
		C86.2,229.7,86.2,229.7,86.2,229.7l22.1,1.4c0.8,0.1,1.5,0.8,1.4,1.6c0,0.4-0.2,0.8-0.5,1c-0.3,0.3-0.7,0.4-1.1,0.4l-22-1.4
		c-0.4,0-0.8-0.2-1-0.5c-0.3-0.3-0.4-0.7-0.4-1.1C84.7,230.4,85.4,229.7,86.2,229.7z"/>
	<path class="st1" d="M368.8,246.5l-22-1.4c-0.7,0-1.3,0.2-1.8,0.6c-0.5,0.4-0.8,1.1-0.8,1.7c0,0.7,0.2,1.3,0.6,1.8
		c0.4,0.5,1.1,0.8,1.7,0.8l22,1.4c0.1,0,0.1,0,0.2,0c0.6,0,1.2-0.2,1.6-0.6c0.5-0.4,0.8-1.1,0.8-1.7c0-0.7-0.2-1.3-0.6-1.8
		C370,246.9,369.4,246.6,368.8,246.5z M370.1,249.1c0,0.4-0.2,0.8-0.5,1c-0.3,0.3-0.7,0.4-1.1,0.4l-22-1.4c-0.4,0-0.8-0.2-1-0.5
		c-0.3-0.3-0.4-0.7-0.4-1.1c0-0.8,0.7-1.4,1.5-1.4c0,0,0.1,0,0.1,0l22,1.4c0.4,0,0.8,0.2,1,0.5C370,248.3,370.1,248.7,370.1,249.1
		L370.1,249.1z"/>
	<path class="st1" d="M86.3,251.5l22-1.4c1.4-0.1,2.4-1.3,2.3-2.7v0c-0.1-1.4-1.3-2.4-2.7-2.3l-22,1.4c-0.7,0-1.3,0.3-1.7,0.8
		c-0.4,0.5-0.7,1.1-0.6,1.8c0,0.7,0.3,1.3,0.8,1.7c0.5,0.4,1,0.6,1.6,0.6C86.2,251.5,86.3,251.5,86.3,251.5z M84.7,249.1
		c0-0.4,0.1-0.8,0.4-1.1c0.3-0.3,0.6-0.5,1-0.5l22-1.4c0,0,0.1,0,0.1,0c0.8,0,1.4,0.6,1.5,1.4c0.1,0.8-0.6,1.5-1.4,1.6l-22,1.4
		c-0.4,0-0.8-0.1-1.1-0.4C84.9,249.9,84.7,249.5,84.7,249.1z"/>
	<path class="st1" d="M368.4,228.7l-22,1.4c-0.7,0-1.3,0.3-1.7,0.8c-0.4,0.5-0.7,1.1-0.6,1.8c0,0.7,0.3,1.3,0.8,1.7
		c0.5,0.4,1,0.6,1.6,0.6c0.1,0,0.1,0,0.2,0l22-1.4c0.7,0,1.3-0.3,1.7-0.8c0.4-0.5,0.7-1.1,0.6-1.8c0-0.7-0.3-1.3-0.8-1.7
		C369.7,228.9,369.1,228.7,368.4,228.7z M370.1,231.1c0,0.4-0.1,0.8-0.4,1.1c-0.3,0.3-0.6,0.5-1,0.5l-22,1.4c-0.4,0-0.8-0.1-1.1-0.4
		s-0.5-0.6-0.5-1c0-0.4,0.1-0.8,0.4-1.1c0.3-0.3,0.6-0.5,1-0.5l22-1.4c0,0,0.1,0,0.1,0c0.4,0,0.7,0.1,1,0.4
		C369.9,230.4,370.1,230.7,370.1,231.1L370.1,231.1z"/>
	<path class="st1" d="M112.1,263.9c0.4-0.6,0.5-1.2,0.4-1.9s-0.5-1.2-1.1-1.6s-1.2-0.5-1.9-0.4l-21.6,4.1c-1.4,0.3-2.2,1.6-2,2.9
		c0.1,0.7,0.5,1.2,1.1,1.6c0.4,0.3,0.9,0.4,1.4,0.4c0.2,0,0.3,0,0.5,0l21.6-4.1C111.1,264.8,111.7,264.5,112.1,263.9z M88.7,268.1
		c-0.4,0.1-0.8,0-1.1-0.2c-0.3-0.2-0.6-0.6-0.6-1c-0.2-0.8,0.4-1.6,1.2-1.8l21.6-4.1c0.1,0,0.2,0,0.3,0c0.7,0,1.3,0.5,1.5,1.2
		c0.2,0.8-0.4,1.6-1.2,1.8L88.7,268.1z"/>
	<path class="st1" d="M342.3,218.2c0.2,1.2,1.3,2,2.5,2c0.2,0,0.3,0,0.5,0l21.6-4.1c1.4-0.3,2.2-1.6,2-2.9v0c-0.3-1.4-1.6-2.2-2.9-2
		l-21.6,4.1C342.9,215.5,342,216.8,342.3,218.2z M366.1,212.1c0.1,0,0.2,0,0.3,0c0.7,0,1.3,0.5,1.5,1.2c0.2,0.8-0.4,1.6-1.2,1.8
		l-21.6,4.1c-0.8,0.2-1.6-0.4-1.8-1.2c-0.2-0.8,0.4-1.6,1.2-1.8L366.1,212.1z"/>
	<path class="st1" d="M115.9,278.2c0.3-0.6,0.4-1.3,0.2-1.9c-0.4-1.3-1.8-2-3.1-1.6L92,281.5c-1.3,0.4-2,1.8-1.6,3.2
		c0.3,1.1,1.3,1.7,2.4,1.7c0.3,0,0.5,0,0.8-0.1l20.9-6.8C115.1,279.2,115.6,278.8,115.9,278.2z M93.3,285.3c-0.8,0.3-1.6-0.2-1.9-1
		c-0.3-0.8,0.2-1.6,1-1.9l20.9-6.8c0.2,0,0.3-0.1,0.5-0.1c0.6,0,1.2,0.4,1.4,1v0c0.1,0.4,0.1,0.8-0.1,1.1s-0.5,0.6-0.9,0.7
		L93.3,285.3z"/>
	<path class="st1" d="M325.3,208.3c0.2,0.6,0.6,1.1,1.2,1.5c0.4,0.2,0.7,0.3,1.1,0.3c0.3,0,0.5,0,0.8-0.1l34.2-11.1
		c1.3-0.4,2-1.8,1.6-3.1c-0.2-0.6-0.6-1.1-1.2-1.5c-0.6-0.3-1.3-0.4-1.9-0.2l-34.2,11.1C325.6,205.6,324.9,207,325.3,208.3z
		 M361.5,195c0.2,0,0.3-0.1,0.5-0.1c0.2,0,0.5,0.1,0.7,0.2c0.4,0.2,0.6,0.5,0.7,0.9c0.3,0.8-0.2,1.6-1,1.9l-34.2,11.1
		c-0.4,0.1-0.8,0.1-1.1-0.1c-0.4-0.2-0.6-0.5-0.7-0.9s-0.1-0.8,0.1-1.1s0.5-0.6,0.9-0.7L361.5,195z"/>
	<path class="st1" d="M121.5,289.9c-0.3-0.6-0.8-1.1-1.4-1.3c-0.6-0.2-1.3-0.2-1.9,0.1l-19.9,9.4c-1.2,0.6-1.8,2.1-1.2,3.3
		c0.3,0.6,0.8,1.1,1.4,1.3c0.3,0.1,0.6,0.2,0.9,0.1c0.4,0,0.7-0.1,1.1-0.2l19.9-9.4C121.6,292.7,122.1,291.2,121.5,289.9z
		 M100,301.7c-0.4,0.2-0.8,0.2-1.1,0.1c-0.4-0.1-0.7-0.4-0.8-0.8c-0.4-0.7,0-1.6,0.7-2l19.9-9.4c0.2-0.1,0.4-0.1,0.6-0.1
		c0.2,0,0.3,0,0.5,0.1c0.4,0.1,0.7,0.4,0.8,0.8c0.2,0.4,0.2,0.8,0.1,1.1s-0.4,0.7-0.8,0.8L100,301.7z"/>
	<path class="st1" d="M333.2,190.3c0.4,0.9,1.3,1.4,2.3,1.4c0.4,0,0.7-0.1,1.1-0.2l19.9-9.4c0.6-0.3,1.1-0.8,1.3-1.4
		c0.2-0.6,0.2-1.3-0.1-1.9c-0.3-0.6-0.8-1.1-1.4-1.3c-0.6-0.2-1.3-0.2-1.9,0.1l-19.9,9.4C333.2,187.6,332.7,189.1,333.2,190.3z
		 M354.8,178.5c0.2-0.1,0.4-0.1,0.6-0.1c0.2,0,0.3,0,0.5,0.1c0.4,0.1,0.7,0.4,0.8,0.8s0.2,0.8,0.1,1.1c-0.1,0.4-0.4,0.7-0.8,0.8
		l-19.9,9.4c-0.8,0.4-1.6,0-2-0.7c-0.4-0.7,0-1.6,0.7-2L354.8,178.5z"/>
	<path class="st1" d="M128.6,302.8c-0.7-1.2-2.3-1.5-3.5-0.8l-18.6,11.8c-0.6,0.4-1,0.9-1.1,1.6s0,1.3,0.3,1.9
		c0.4,0.6,0.9,1,1.6,1.1c0.2,0,0.4,0.1,0.6,0.1c0.5,0,0.9-0.1,1.3-0.4l18.6-11.8C129,305.5,129.3,304,128.6,302.8z M127.3,305.4
		l-18.6,11.8c-0.3,0.2-0.7,0.3-1.1,0.2c-0.4-0.1-0.7-0.3-0.9-0.7c-0.2-0.3-0.3-0.7-0.2-1.1s0.3-0.7,0.7-0.9l18.6-11.8
		c0.2-0.2,0.5-0.2,0.8-0.2c0.5,0,1,0.2,1.3,0.7C128.2,304,128,305,127.3,305.4z"/>
	<path class="st1" d="M325.8,175.5c-0.1,0.7,0,1.3,0.3,1.9c0.4,0.6,0.9,1,1.6,1.1c0.2,0,0.4,0.1,0.6,0.1c0.5,0,0.9-0.1,1.3-0.4
		l18.6-11.8c0.6-0.4,1-0.9,1.1-1.6c0.1-0.7,0-1.3-0.3-1.9c-0.4-0.6-0.9-1-1.6-1.1c-0.7-0.1-1.3,0-1.9,0.3L326.9,174
		C326.4,174.3,326,174.9,325.8,175.5z M327.5,174.8L346,163c0.2-0.2,0.5-0.2,0.8-0.2c0.1,0,0.2,0,0.3,0c0.4,0.1,0.7,0.3,0.9,0.7v0
		c0.2,0.3,0.3,0.7,0.2,1.1c-0.1,0.4-0.3,0.7-0.7,0.9l-18.6,11.8c-0.3,0.2-0.7,0.3-1.1,0.2c-0.4-0.1-0.7-0.3-0.9-0.7
		s-0.3-0.7-0.2-1.1C326.9,175.4,327.1,175,327.5,174.8z"/>
	<path class="st1" d="M137.8,316.5c0.1-0.7-0.1-1.3-0.6-1.8c-0.4-0.5-1-0.8-1.7-0.9c-0.7-0.1-1.3,0.1-1.8,0.6l-17,14
		c-0.5,0.4-0.8,1-0.9,1.7c-0.1,0.7,0.1,1.3,0.6,1.8c0.4,0.5,1,0.8,1.7,0.9c0.1,0,0.2,0,0.2,0c0.6,0,1.1-0.2,1.6-0.6l17-14
		C137.4,317.8,137.7,317.2,137.8,316.5z M136.3,317.5l-17,14c-0.3,0.3-0.7,0.4-1.1,0.3c-0.4,0-0.8-0.2-1-0.5
		c-0.3-0.3-0.4-0.7-0.3-1.1c0-0.4,0.2-0.8,0.5-1l17-14c0.3-0.2,0.6-0.3,1-0.3c0,0,0.1,0,0.1,0c0.4,0,0.8,0.2,1,0.5v0
		c0.3,0.3,0.4,0.7,0.3,1.1C136.8,316.8,136.6,317.2,136.3,317.5z"/>
	<path class="st1" d="M317,163.7c-0.1,0.7,0.1,1.3,0.6,1.8c0.5,0.6,1.2,0.9,1.9,0.9c0.6,0,1.1-0.2,1.6-0.6l17-14
		c0.5-0.4,0.8-1,0.9-1.7c0.1-0.7-0.1-1.3-0.6-1.8c-0.4-0.5-1-0.8-1.7-0.9c-0.7-0.1-1.3,0.1-1.8,0.6l-17,14
		C317.3,162.4,317,163,317,163.7z M318.5,162.8l17-14c0.3-0.2,0.6-0.3,1-0.3c0,0,0.1,0,0.1,0c0.4,0,0.8,0.2,1,0.5
		c0.3,0.3,0.4,0.7,0.3,1.1c0,0.4-0.2,0.8-0.5,1l-17,14c-0.6,0.5-1.6,0.4-2.1-0.2c-0.3-0.3-0.4-0.7-0.3-1.1
		C318,163.4,318.2,163,318.5,162.8z"/>
	<path class="st1" d="M148.1,327.2c0-0.7-0.3-1.3-0.8-1.7c-1-0.9-2.6-0.9-3.5,0.1l-15.1,16c-0.5,0.5-0.7,1.1-0.7,1.8
		s0.3,1.3,0.8,1.7c0.5,0.5,1.1,0.7,1.7,0.7c0.7,0,1.3-0.3,1.8-0.8l15.1-16C147.8,328.5,148.1,327.8,148.1,327.2z M146.7,328.3
		l-15.1,16c-0.6,0.6-1.5,0.6-2.1,0.1c-0.3-0.3-0.5-0.6-0.5-1c0-0.4,0.1-0.8,0.4-1.1l15.1-16c0.3-0.3,0.7-0.5,1.1-0.5
		c0.4,0,0.7,0.1,1,0.4c0.3,0.3,0.5,0.6,0.5,1C147.1,327.6,146.9,328,146.7,328.3z"/>
	<path class="st1" d="M306.7,153.1c0,0.7,0.3,1.3,0.8,1.7c0.5,0.4,1.1,0.7,1.7,0.7c0,0,0.1,0,0.1,0c0.7,0,1.3-0.3,1.7-0.8l15.1-16
		c0.5-0.5,0.7-1.1,0.7-1.8c0-0.7-0.3-1.3-0.8-1.7c-0.5-0.5-1.1-0.7-1.8-0.7c-0.7,0-1.3,0.3-1.7,0.8l-15.1,16
		C306.9,151.8,306.7,152.4,306.7,153.1z M308.1,152l15.1-16c0.3-0.3,0.7-0.5,1.1-0.5c0.4,0,0.7,0.1,1,0.4v0c0.3,0.3,0.5,0.6,0.5,1
		c0,0.4-0.1,0.8-0.4,1.1l-15.1,16c-0.3,0.3-0.6,0.5-1,0.5c-0.4,0-0.8-0.1-1.1-0.4c-0.3-0.3-0.5-0.6-0.5-1S307.8,152.3,308.1,152z"/>
	<path class="st1" d="M166.8,323.5c-0.5-0.4-1.2-0.5-1.9-0.4c-0.7,0.1-1.2,0.5-1.6,1l-21.2,29.1c-0.4,0.5-0.5,1.2-0.4,1.9
		c0.1,0.7,0.5,1.2,1,1.6c0.4,0.3,0.9,0.5,1.5,0.5c0.1,0,0.3,0,0.4,0c0.7-0.1,1.2-0.5,1.6-1l21.2-29.1c0.4-0.5,0.5-1.2,0.4-1.9
		C167.7,324.4,167.4,323.8,166.8,323.5z M166.6,326.4l-21.2,29.1c-0.5,0.7-1.4,0.8-2.1,0.3c-0.3-0.2-0.5-0.6-0.6-1
		c-0.1-0.4,0-0.8,0.3-1.1l21.2-29.1c0.2-0.3,0.6-0.5,1-0.6c0.1,0,0.2,0,0.2,0c0.3,0,0.6,0.1,0.9,0.3h0c0.3,0.2,0.5,0.6,0.6,1
		C166.9,325.6,166.8,326,166.6,326.4z"/>
	<path class="st1" d="M295.1,143.8c0.1,0.7,0.5,1.2,1,1.6c0.4,0.3,0.9,0.5,1.5,0.5c0.1,0,0.3,0,0.4,0c0.7-0.1,1.2-0.5,1.6-1
		l12.9-17.8c0.8-1.1,0.6-2.7-0.6-3.5c-1.1-0.8-2.7-0.6-3.5,0.6L295.6,142C295.2,142.5,295,143.2,295.1,143.8z M296.4,142.6
		l12.9-17.8c0.3-0.4,0.8-0.6,1.2-0.6c0.3,0,0.6,0.1,0.9,0.3c0.7,0.5,0.8,1.4,0.3,2.1l-12.9,17.8c-0.2,0.3-0.6,0.5-1,0.6
		c-0.4,0.1-0.8,0-1.1-0.3c-0.3-0.2-0.5-0.6-0.6-1C296.1,143.3,296.2,142.9,296.4,142.6z"/>
	<path class="st1" d="M297.7,117.3c0.7-1.2,0.2-2.7-1-3.4c-0.6-0.3-1.3-0.4-1.9-0.2c-0.6,0.2-1.2,0.6-1.5,1.2l-10.6,19.3
		c-0.3,0.6-0.4,1.3-0.2,1.9c0.2,0.6,0.6,1.2,1.2,1.5c0.4,0.2,0.8,0.3,1.2,0.3c0.2,0,0.5,0,0.7-0.1c0.6-0.2,1.2-0.6,1.5-1.2
		L297.7,117.3z M286.3,136.1c-0.2,0.3-0.5,0.6-0.9,0.7c-0.4,0.1-0.8,0.1-1.1-0.1c-0.3-0.2-0.6-0.5-0.7-0.9s-0.1-0.8,0.1-1.1
		l10.6-19.3c0.2-0.3,0.5-0.6,0.9-0.7c0.1,0,0.3-0.1,0.4-0.1c0.2,0,0.5,0.1,0.7,0.2c0.3,0.2,0.6,0.5,0.7,0.9s0.1,0.8-0.1,1.1
		L286.3,136.1z"/>
	<path class="st1" d="M280.4,106.2c-1.3-0.5-2.7,0.1-3.2,1.4l-8.1,20.5c-0.2,0.6-0.2,1.3,0,1.9s0.8,1.1,1.4,1.3
		c0.3,0.1,0.6,0.2,0.9,0.2c0.3,0,0.7-0.1,1-0.2c0.6-0.3,1.1-0.8,1.3-1.4l8.1-20.5c0.2-0.6,0.2-1.3,0-1.9S281,106.5,280.4,106.2z
		 M280.9,109.1l-8.1,20.5c-0.1,0.4-0.4,0.7-0.8,0.8c-0.4,0.2-0.8,0.2-1.1,0c-0.4-0.1-0.7-0.4-0.8-0.8c-0.2-0.4-0.2-0.8,0-1.1
		l8.1-20.5c0.2-0.6,0.8-0.9,1.4-0.9c0.2,0,0.4,0,0.6,0.1c0.4,0.1,0.7,0.4,0.8,0.8C281,108.3,281,108.7,280.9,109.1z"/>
	<path class="st1" d="M263.2,100.6c-0.6-0.2-1.3-0.1-1.9,0.3c-0.6,0.3-1,0.9-1.2,1.5l-5.5,21.3c-0.3,1.3,0.5,2.7,1.8,3
		c0.2,0.1,0.4,0.1,0.6,0.1c0.4,0,0.9-0.1,1.3-0.4c0.6-0.3,1-0.9,1.2-1.5l5.5-21.3C265.3,102.4,264.5,101,263.2,100.6z M264,103.4
		l-5.5,21.3c-0.1,0.4-0.3,0.7-0.7,0.9c-0.3,0.2-0.7,0.3-1.1,0.2c-0.8-0.2-1.3-1-1.1-1.8l5.5-21.3c0.2-0.7,0.8-1.1,1.5-1.1
		c0.1,0,0.2,0,0.4,0C263.7,101.8,264.2,102.6,264,103.4z"/>
	<path class="st1" d="M245.4,97.3c-0.7-0.1-1.3,0.1-1.8,0.5c-0.5,0.4-0.9,1-0.9,1.7l-2.8,21.8c-0.2,1.4,0.8,2.6,2.2,2.8
		c0.1,0,0.2,0,0.3,0c1.2,0,2.3-0.9,2.5-2.2l2.8-21.8c0.1-0.7-0.1-1.3-0.5-1.8C246.7,97.7,246.1,97.3,245.4,97.3z M246.6,99.9
		l-2.8,21.8c-0.1,0.8-0.9,1.4-1.7,1.3c-0.8-0.1-1.4-0.9-1.3-1.7l2.8-21.8c0-0.4,0.3-0.7,0.6-1c0.3-0.2,0.6-0.3,0.9-0.3
		c0.1,0,0.1,0,0.2,0c0.4,0,0.7,0.3,1,0.6C246.5,99.1,246.6,99.5,246.6,99.9z"/>
	<path class="st1" d="M227.4,96.1c-1.4,0-2.5,1.1-2.5,2.5v36c0,1.4,1.1,2.5,2.5,2.5s2.5-1.1,2.5-2.5v-36
		C229.9,97.2,228.8,96.1,227.4,96.1z M228.9,134.6c0,0.8-0.7,1.5-1.5,1.5s-1.5-0.7-1.5-1.5v-36c0-0.8,0.7-1.5,1.5-1.5
		s1.5,0.7,1.5,1.5V134.6z"/>
</g>
</svg>
