<?xml version="1.0" encoding="utf-8"?>
<!-- Generator: Adobe Illustrator 20.1.0, SVG Export Plug-In . SVG Version: 6.00 Build 0)  -->
<svg version="1.1"
	 id="svg3001" inkscape:version="0.48.3.1 r9886" sodipodi:docname="sort_font_awesome.svg" xmlns:cc="http://creativecommons.org/ns#" xmlns:dc="http://purl.org/dc/elements/1.1/" xmlns:inkscape="http://www.inkscape.org/namespaces/inkscape" xmlns:rdf="http://www.w3.org/1999/02/22-rdf-syntax-ns#" xmlns:sodipodi="http://sodipodi.sourceforge.net/DTD/sodipodi-0.dtd" xmlns:svg="http://www.w3.org/2000/svg"
	 xmlns="http://www.w3.org/2000/svg" xmlns:xlink="http://www.w3.org/1999/xlink" x="0px" y="0px" viewBox="0 0 457.1 628.6"
	 style="enable-background:new 0 0 457.1 628.6;" xml:space="preserve">
<style type="text/css">
	.st0{fill:#5F6D7A;}
</style>
<sodipodi:namedview  bordercolor="#666666" borderopacity="1" gridtolerance="10" guidetolerance="10" id="namedview3007" inkscape:current-layer="svg3001" inkscape:cx="896" inkscape:cy="896" inkscape:pageopacity="0" inkscape:pageshadow="2" inkscape:window-height="480" inkscape:window-maximized="0" inkscape:window-width="640" inkscape:window-x="0" inkscape:window-y="25" inkscape:zoom="0.13169643" objecttolerance="10" pagecolor="#ffffff" showgrid="false">
	</sodipodi:namedview>
<g id="g3003" transform="matrix(1,0,0,-1,387.25424,1293.0169)">
	<path id="path3005" inkscape:connector-curvature="0" class="st0" d="M69.9,893c0-7.7-2.8-14.4-8.5-20.1l-200-200
		c-5.7-5.7-12.4-8.5-20.1-8.5c-7.7,0-14.4,2.8-20.1,8.5l-200,200c-5.7,5.7-8.5,12.4-8.5,20.1s2.8,14.4,8.5,20.1
		c5.7,5.7,12.4,8.5,20.1,8.5h400c7.7,0,14.4-2.8,20.1-8.5C67.1,907.5,69.9,900.8,69.9,893z M69.9,1064.4c0-7.7-2.8-14.4-8.5-20.1
		c-5.7-5.7-12.4-8.5-20.1-8.5h-400c-7.7,0-14.4,2.8-20.1,8.5c-5.7,5.7-8.5,12.4-8.5,20.1c0,7.7,2.8,14.4,8.5,20.1l200,200
		c5.7,5.7,12.4,8.5,20.1,8.5c7.7,0,14.4-2.8,20.1-8.5l200-200C67.1,1078.9,69.9,1072.2,69.9,1064.4z"/>
</g>
</svg>
