<?xml version="1.0" encoding="utf-8"?>
<!-- Generator: Adobe Illustrator 16.0.4, SVG Export Plug-In . SVG Version: 6.00 Build 0)  -->
<!DOCTYPE svg PUBLIC "-//W3C//DTD SVG 1.1//EN" "http://www.w3.org/Graphics/SVG/1.1/DTD/svg11.dtd">
<svg version="1.1" id="Layer_1" xmlns="http://www.w3.org/2000/svg" xmlns:xlink="http://www.w3.org/1999/xlink" x="0px" y="0px"
	 width="845.836px" height="344px" viewBox="0 175.888 845.836 344" enable-background="new 0 175.888 845.836 344"
	 xml:space="preserve">
<rect y="175.531" fill="#FFFFFF" width="1024" height="419.939"/>
<rect x="549.31" y="170.694" fill="#44515B" width="296.526" height="437.938"/>
<rect y="170.694" fill="#F2F2F2" width="1027.836" height="66.375"/>
<rect x="-4.503" y="188.694" fill="#5F6D7A" width="286.353" height="419.94"/>
<rect x="-4.503" y="170.694" fill="#44515B" width="286.353" height="66.375"/>
<rect x="16.678" y="276.431" fill="none" width="215.14" height="25.016"/>
<path fill="#44515B" d="M272.712,364.5c0,8.891-7.206,16.096-16.095,16.096H24.808c-8.889,0-16.095-7.207-16.095-16.096l0,0
	c0-8.889,7.206-16.096,16.095-16.096h231.809C265.506,348.404,272.712,355.611,272.712,364.5L272.712,364.5z"/>
<circle fill="#55CA67" cx="356.238" cy="200.546" r="6.5"/>
<circle fill="#55CA67" cx="22.515" cy="364.148" r="6.5"/>
<circle fill="#55CA67" cx="22.515" cy="401.332" r="6.5"/>
<line fill="none" x1="213.472" y1="387.835" x2="37.524" y2="387.835"/>
<circle fill="none" stroke="#F2F2F2" stroke-width="3" stroke-miterlimit="10" cx="22.511" cy="436.504" r="5.003"/>
<circle fill="none" stroke="#F2F2F2" stroke-width="3" stroke-miterlimit="10" cx="22.511" cy="471.497" r="5.003"/>
<circle fill="none" stroke="#F2F2F2" stroke-width="2" stroke-miterlimit="10" cx="259.338" cy="268.269" r="4.5"/>
<line fill="none" stroke="#F2F2F2" stroke-width="2" stroke-miterlimit="10" x1="261.924" y1="270.832" x2="267.924" y2="277.875"/>
<polyline fill="none" stroke="#F2F2F2" stroke-width="3" stroke-miterlimit="10" points="264.42,200.496 258.42,207.607 
	264.42,214.273 "/>
<polyline fill="none" stroke="#44515B" stroke-width="3" stroke-miterlimit="10" points="453.977,197.296 458.703,201.798 
	462.977,197.296 "/>
<circle fill="#55CA67" cx="23.349" cy="326.128" r="6.5"/>
<path fill="#5F6D7A" d="M600.166,334.941c0,3.416-2.828,6.186-6.316,6.186h-17.365c-3.488,0-6.316-2.77-6.316-6.186V317.31
	c0-3.418,2.828-6.186,6.316-6.186h17.365c3.488,0,6.316,2.77,6.316,6.186V334.941z"/>
<polyline fill="none" stroke="#F2F2F2" stroke-width="2.5" stroke-miterlimit="10" points="587.666,320.376 582.666,326.376 
	587.666,331.875 "/>
<path fill="#44515B" d="M444,200.214c0,1.381-0.895,2.5-2,2.5h-69.504c-1.104,0-2-1.119-2-2.5l0,0c0-1.381,0.895-2.5,2-2.5H442
	C443.105,197.714,444,198.833,444,200.214L444,200.214z"/>
<path fill="#FFFFFF" d="M176.5,326.128c0,1.381-1.582,2.5-3.537,2.5H50.034c-1.954,0-3.537-1.119-3.537-2.5l0,0
	c0-1.381,1.583-2.5,3.537-2.5h122.929C174.918,323.628,176.5,324.748,176.5,326.128L176.5,326.128z"/>
<path fill="#FFFFFF" d="M209.037,364.148c0,1.381-1.978,2.5-4.422,2.5H50.919c-2.443,0-4.422-1.119-4.422-2.5l0,0
	c0-1.383,1.979-2.5,4.422-2.5h153.696C207.059,361.648,209.037,362.767,209.037,364.148L209.037,364.148z"/>
<path fill="#FFFFFF" d="M169.666,401.164c0,1.383-1.509,2.502-3.374,2.502H49.037c-1.864,0-3.374-1.119-3.374-2.502l0,0
	c0-1.381,1.51-2.5,3.374-2.5h117.256C168.157,398.664,169.666,399.783,169.666,401.164L169.666,401.164z"/>
<path fill="#FFFFFF" d="M198.5,271.75c0,3.385-2.202,6.127-4.924,6.127H22.436c-2.72,0-4.924-2.742-4.924-6.127l0,0
	c0-3.385,2.204-6.127,4.924-6.127h171.14C196.298,265.623,198.5,268.365,198.5,271.75L198.5,271.75z"/>
<path fill="#66CFC3" d="M754.5,271.75c0,2.625-2.365,4.75-5.282,4.75H626.345c-2.917,0-5.282-2.125-5.282-4.75l0,0
	c0-2.623,2.365-4.75,5.282-4.75h122.873C752.135,267,754.5,269.126,754.5,271.75L754.5,271.75z"/>
<path fill="#FFFFFF" d="M824,372.855c0,1.161-0.896,2.104-2,2.104H572.99c-1.104,0-2-0.943-2-2.104l0,0c0-1.162,0.896-2.105,2-2.105
	H822C823.104,370.75,824,371.693,824,372.855L824,372.855z"/>
<path fill="#FFFFFF" d="M824,388.121c0,1.162-0.896,2.104-2,2.104H572.99c-1.104,0-2-0.942-2-2.104l0,0c0-1.162,0.896-2.105,2-2.105
	H822C823.104,386.015,824,386.957,824,388.121L824,388.121z"/>
<path fill="#FFFFFF" d="M824,403.91c0,1.161-0.896,2.104-2,2.104H572.99c-1.104,0-2-0.943-2-2.104l0,0c0-1.162,0.896-2.105,2-2.105
	H822C823.104,401.804,824,402.746,824,403.91L824,403.91z"/>
<path fill="#FFFFFF" d="M728,418.644c0,1.162-0.556,2.105-1.24,2.105H572.309c-0.685,0-1.238-0.943-1.238-2.105l0,0
	c0-1.161,0.556-2.104,1.238-2.104H726.76C727.444,416.54,728,417.483,728,418.644L728,418.644z"/>
<path fill="#66CFC3" d="M801.284,294.132c0,0.83-0.308,1.5-0.676,1.5H571.96c-0.37,0-0.676-0.67-0.676-1.5l0,0
	c0-0.83,0.306-1.5,0.676-1.5h228.648C800.979,292.632,801.284,293.304,801.284,294.132L801.284,294.132z"/>
<path fill="#5F6D7A" d="M334.5,216.199c0,3.418-2.828,6.186-6.316,6.186h-17.367c-3.489,0-6.316-2.77-6.316-6.186V198.57
	c0-3.417,2.828-6.186,6.316-6.186h17.367c3.489,0,6.316,2.77,6.316,6.186V216.199z"/>
</svg>
