<?xml version="1.0" encoding="utf-8"?>
<!-- Generator: Adobe Illustrator 22.1.0, SVG Export Plug-In . SVG Version: 6.00 Build 0)  -->
<svg version="1.1" id="Layer_1" xmlns="http://www.w3.org/2000/svg" xmlns:xlink="http://www.w3.org/1999/xlink" x="0px" y="0px"
	 width="512px" height="512px" viewBox="0 0 512 512" style="enable-background:new 0 0 512 512;" xml:space="preserve">
<style type="text/css">
	.st0{fill:#FFFFFF;}
</style>
<g>
	<path class="st0" d="M329.5,365.3c6,12.9,19.1,21.9,34.2,21.9c20.8,0,37.7-16.9,37.7-37.7s-16.9-37.7-37.7-37.7
		c-15.2,0-28.3,9-34.2,21.9H215.7c1.2,5.1,1.8,10.3,1.8,15.8c0,38.3-31,69.3-69.3,69.3s-69.3-31-69.3-69.3s31-69.3,69.3-69.3v-33
		C91.8,247.2,46,293,46,349.5s45.8,102.3,102.3,102.3c51.1,0,93.5-37.5,101.1-86.5H329.5z"/>
	<path class="st0" d="M192,242.2L151.7,312c-1.1-0.1-2.3-0.2-3.5-0.2c-20.8,0-37.7,16.9-37.7,37.7s16.9,37.7,37.7,37.7
		s37.7-16.9,37.7-37.7c0-8.1-2.6-15.6-6.9-21.8l57.1-98.9c0,0-1.4-0.4-3.3-1.1c-26.9-9.5-46.1-35.2-46.1-65.3
		c0-38.3,31-69.3,69.3-69.3s69.3,31,69.3,69.3c0,12.8-3.5,24.8-9.6,35.1l28.6,16.4c8.9-15.1,14-32.7,14-51.6
		C358.3,105.8,312.5,60,256,60s-102.3,45.8-102.3,102.3C153.7,194.7,168.7,223.5,192,242.2L192,242.2z"/>
	<path class="st0" d="M363.7,247.2c-13,0-25.4,2.5-36.9,6.9l-40.2-69.7c4.4-6.2,7.1-13.8,7.1-22c0-20.8-16.9-37.7-37.7-37.7
		s-37.7,16.9-37.7,37.7s16.9,37.7,37.7,37.7c1.1,0,2.2-0.1,3.2-0.1l57.1,99c12.4-11.6,29.1-18.8,47.4-18.8c38.3,0,69.3,31,69.3,69.3
		s-31,69.3-69.3,69.3c-25.7,0-48.2-14-60.1-34.9L275,400.4c17.6,30.7,50.7,51.4,88.7,51.4c56.5,0,102.3-45.8,102.3-102.3
		S420.2,247.2,363.7,247.2z"/>
</g>
</svg>
